# xmcd CD database file
#
# Track frame offsets:
#	150
#	22450
#	46622
#	69001
#	94796
#	124677
#	149200
#	169974
#	198147
#
# Disc length: 3036 seconds
#
# Revision: 2
# Processed by: cddbd v1.5.2PL0 Copyright (c) Steve Scherf et al.
# Submitted via: CDex 1.51
#
DISCID=7d0bda09
DTITLE=Richard Underhill - Free Spirit
DYEAR=2010
DGENRE=Jazz
TTITLE0=This House
TTITLE1=Hustle Up
TTITLE2=Crack Of Noon
TTITLE3=Blakey's Bounce
TTITLE4=When You Fall In Love
TTITLE5=By Your Side
TTITLE6=Positive Spin
TTITLE7=Be Strong, Be Strong
TTITLE8=Home Again
EXTD=YEAR: 2010
EXTT0=
EXTT1=
EXTT2=
EXTT3=
EXTT4=
EXTT5=
EXTT6=
EXTT7=
EXTT8=
PLAYORDER=
